<svg xmlns="http://www.w3.org/2000/svg" viewBox="0 0 73.2 73.2"><title>blok</title><g id="Warstwa_2" data-name="Warstwa 2"><g id="Warstwa_1-2" data-name="Warstwa 1"><path d="M1.83,68.592H71.37V71.37H1.83ZM9.785,57.999a8.8354,8.8354,0,0,0,4.5494-1.8208V66.762H9.7575ZM1.83,49.1418a7.0721,7.0721,0,1,1,7.9605,7.01l.011-3.5456,2.4375-2.5235a.9143.9143,0,1,0-1.3148-1.271L9.81,49.9644l.0082-2.5079a.9145.9145,0,0,0-.9122-.9177H8.903a.9147.9147,0,0,0-.9151.9121L7.98,50.0762,6.7582,48.8125a.9144.9144,0,1,0-1.3149,1.271l2.5282,2.6177-.011,3.4431A7.0788,7.0788,0,0,1,1.83,49.1418ZM44.6062,35.6851V66.762H16.1644v-12.49a8.8474,8.8474,0,0,0,0-10.2617V35.6851ZM16.1644,6.416H57.0731V33.855H16.1644ZM14.704,1.83H58.8629V4.5859H14.704ZM57.0731,39.9746H46.4362v-4.29H57.0731ZM64.2979,42.07a7.0687,7.0687,0,0,1,.8876,14.0818l.011-3.5447,2.4385-2.5234a.9144.9144,0,1,0-1.3149-1.271l-1.1145,1.1538.0074-2.509a.9149.9149,0,0,0-.9123-.9177h-.0028a.9147.9147,0,0,0-.9149.9123l-.0083,2.6243-1.2206-1.2627a.9142.9142,0,1,0-1.3148,1.2707l2.5281,2.617-.01,3.4431A7.0686,7.0686,0,0,1,64.2979,42.07Zm-17.8617-.2654H57.0731v2.1568a8.84,8.84,0,0,0,0,10.3613v12.44H46.4362ZM58.9031,66.762V56.2065A8.8423,8.8423,0,0,0,63.35,57.9917l-.0265,8.77ZM.915,73.2h71.37a.9142.9142,0,0,0,.915-.9151V67.677a.9142.9142,0,0,0-.915-.915H65.1535l.0265-8.763a8.9005,8.9005,0,1,0-6.2769-15.9219v-6.392h1.3414a.9151.9151,0,0,0,0-1.83H58.9031V6.416h.8748a.9143.9143,0,0,0,.915-.915V.915A.9142.9142,0,0,0,59.7779,0H13.789a.9141.9141,0,0,0-.9149.915V5.501a.9143.9143,0,0,0,.9149.915h.5454V33.855H13.0058a.9151.9151,0,0,0,0,1.83h1.3286v6.42A8.896,8.896,0,1,0,7.955,57.991l-.0274,8.77H.915A.9141.9141,0,0,0,0,67.676v4.6089A.9142.9142,0,0,0,.915,73.2Z"/><path d="M24.0526,28.9067h-2.766V25.0591a1.3835,1.3835,0,1,1,2.7669,0v3.8476Zm-1.3835-7.061a3.2165,3.2165,0,0,0-3.2135,3.2134v4.7627a.9142.9142,0,0,0,.915.9148h4.5961a.9141.9141,0,0,0,.915-.9148V25.0591A3.215,3.215,0,0,0,22.6691,21.8457Z"/><path d="M24.0526,17.2039h-2.766V13.3562a1.3835,1.3835,0,1,1,2.7669,0v3.8477Zm-1.3835-7.0611a3.2166,3.2166,0,0,0-3.2135,3.2134v4.7627a.9141.9141,0,0,0,.915.9148h4.5961a.9141.9141,0,0,0,.915-.9148V13.3562A3.2152,3.2152,0,0,0,22.6691,10.1428Z"/><path d="M33.34,28.9067h-2.766V25.0591a1.3835,1.3835,0,1,1,2.767,0v3.8476Zm-1.3834-7.061a3.2164,3.2164,0,0,0-3.2135,3.2134v4.7627a.9141.9141,0,0,0,.915.9148h4.596a.9141.9141,0,0,0,.915-.9148V25.0591A3.2155,3.2155,0,0,0,31.9564,21.8457Z"/><path d="M33.34,17.2039h-2.766V13.3562a1.3835,1.3835,0,0,1,2.767,0v3.8477Zm-1.3834-7.0611a3.2166,3.2166,0,0,0-3.2135,3.2134v4.7627a.9141.9141,0,0,0,.915.9148h4.596a.9141.9141,0,0,0,.915-.9148V13.3562A3.2157,3.2157,0,0,0,31.9564,10.1428Z"/><path d="M42.6271,28.9067h-2.766V25.0591a1.3835,1.3835,0,1,1,2.7669,0v3.8476Zm-1.3835-7.061A3.2164,3.2164,0,0,0,38.03,25.0591v4.7627a.914.914,0,0,0,.9149.9148h4.5961a.9141.9141,0,0,0,.915-.9148V25.0591A3.215,3.215,0,0,0,41.2436,21.8457Z"/><path d="M42.6271,17.2039h-2.766V13.3562a1.3835,1.3835,0,1,1,2.7669,0v3.8477Zm-1.3835-7.0611A3.2166,3.2166,0,0,0,38.03,13.3562v4.7627a.914.914,0,0,0,.9149.9148h4.5961a.9141.9141,0,0,0,.915-.9148V13.3562A3.2152,3.2152,0,0,0,41.2436,10.1428Z"/><path d="M51.9134,28.9067h-2.766V25.0591a1.3835,1.3835,0,1,1,2.7669,0v3.8476Zm-1.3825-7.061a3.2164,3.2164,0,0,0-3.2135,3.2134v4.7627a.9141.9141,0,0,0,.915.9148h4.596a.9141.9141,0,0,0,.915-.9148V25.0591A3.2162,3.2162,0,0,0,50.5309,21.8457Z"/><path d="M51.9134,17.2039h-2.766V13.3562a1.3835,1.3835,0,1,1,2.7669,0v3.8477Zm-1.3825-7.0611a3.2166,3.2166,0,0,0-3.2135,3.2134v4.7627a.9141.9141,0,0,0,.915.9148h4.596a.9141.9141,0,0,0,.915-.9148V13.3562A3.2164,3.2164,0,0,0,50.5309,10.1428Z"/><path d="M54.0426,55.9055a.9142.9142,0,0,0-.915.9151v.8537a.915.915,0,1,0,1.83,0v-.8537A.9148.9148,0,0,0,54.0426,55.9055Z"/><path d="M30.367,41.4128,37.41,47.4885V57.7749H23.3233V47.4885Zm-9.6148,8.2937.7421-.64V58.69a.9143.9143,0,0,0,.915.9151H38.3257a.9143.9143,0,0,0,.915-.9151v-9.623l.7421.64a.9148.9148,0,0,0,1.1949-1.3855L30.9654,39.5115a.9153.9153,0,0,0-1.1959,0l-10.2123,8.81a.9148.9148,0,0,0,1.195,1.3855Z"/></g></g></svg>