<svg xmlns="http://www.w3.org/2000/svg" viewBox="0 0 76.95 67.9724"><title>metraz</title><g id="Warstwa_2" data-name="Warstwa 2"><g id="Warstwa_1-2" data-name="Warstwa 1"><path d="M1.6245,45.7424H15.732c0,2.052.2565,8.1226,4.104,12.2266,2.394,2.5649,5.7285,3.8474,9.8325,3.8474a.8568.8568,0,0,0,.855-.855V45.7424H37.62v20.52H1.6245ZM26.42,1.6245v4.959c-.0855,0-.171-.0855-.2565-.0855H17.1855a.855.855,0,1,0,0,1.71H26.163a.3143.3143,0,0,0,.2565-.0854v2.3083c-.0855,0-.171-.0854-.2565-.0854H17.1855a.855.855,0,1,0,0,1.71H26.163A.3143.3143,0,0,0,26.42,11.97v3.1635H1.6245V1.6245Zm48.906,31.4639H39.33V25.137c2.223,0,7.61-.4275,11.457-3.9329q3.8475-3.591,3.8475-10.0037a.8567.8567,0,0,0-.855-.8549H39.33V2.052a.9163.9163,0,0,0-.171-.5129H75.411V33.0884ZM67.46,57.969l7.866-6.669V64.7234ZM66.177,59.0806l8.4645,7.1819H57.7125Zm-8.55-9.49H74.8125l-8.55,7.2673ZM56.601,50.958l8.2935,7.011L56.601,64.98Zm-54.8055-6.84h-.171V32.5754h11.799V44.1179Zm37.449,1.0261v-.1711a.8568.8568,0,0,0-.855-.855H29.925a.6773.6773,0,0,0-.684.4275.8722.8722,0,0,0-.4275.6841V60.1919a10.9367,10.9367,0,0,1-7.78-3.3345c-4.104-4.36-3.591-11.6279-3.591-11.7134a.8493.8493,0,0,0-.5985-.8549,1.2129,1.2129,0,0,0-.513-.1712h-1.197V32.5754h3.933a.8568.8568,0,0,0,.855-.8549.8078.8078,0,0,0-.855-.855H1.6245V16.8435h25.65a.8568.8568,0,0,0,.855-.855V1.6245H37.962a.6282.6282,0,0,0-.171.513v9.1484a.8568.8568,0,0,0,.855.855h14.45a11.1923,11.1923,0,0,1-3.3345,7.9516c-4.19,3.9329-11.115,3.5054-11.115,3.5054a.8435.8435,0,0,0-.855.77.77.77,0,0,0,.0855.4275V38.988a.8568.8568,0,0,0,.855.855.8078.8078,0,0,0,.855-.855V34.7986H75.582v13.167h-19.75a.8567.8567,0,0,0-.855.855V66.2625H39.33V45.3149C39.33,45.23,39.33,45.144,39.2445,45.144ZM76.095,0H.855A.8568.8568,0,0,0,0,.855V67.1174a.8568.8568,0,0,0,.855.855h75.24a.8568.8568,0,0,0,.855-.855V.77A.79.79,0,0,0,76.095,0Z"/><path d="M6.669,7.6951A1.3149,1.3149,0,0,1,7.9515,6.4126H11.286a1.3149,1.3149,0,0,1,1.2825,1.2825v2.052A1.315,1.315,0,0,1,11.286,11.03H7.9515A1.315,1.315,0,0,1,6.669,9.7471Zm1.2825,4.959H11.286a2.883,2.883,0,0,0,2.907-2.907V7.6951a2.883,2.883,0,0,0-2.907-2.907H7.9515a2.883,2.883,0,0,0-2.907,2.907v2.052A2.9379,2.9379,0,0,0,7.9515,12.6541Z"/></g></g></svg>