<svg xmlns="http://www.w3.org/2000/svg" viewBox="0 0 31.8702 55.0444"><defs><style>.cls-1{fill:none;stroke:#000;stroke-miterlimit:10;stroke-width:3.75px;}</style></defs><title>polnoc</title><g id="Warstwa_2" data-name="Warstwa 2"><g id="Warstwa_1-2" data-name="Warstwa 1"><path d="M15.7516,24.812a14.6081,14.6081,0,0,0-1.793.1365,13.9489,13.9489,0,0,0-3.9925,1.19A14.2429,14.2429,0,0,0,2.1238,35.99a14.4573,14.4573,0,0,0-.1874,5.0264,14.2282,14.2282,0,0,0,8.6608,11.1777,14.0889,14.0889,0,0,0,10.6756,0A14.2167,14.2167,0,0,0,29.93,41.0159a14.4077,14.4077,0,0,0-.1838-5.0264,14.2546,14.2546,0,0,0-7.8422-9.85,13.9619,13.9619,0,0,0-3.9926-1.19,14.6886,14.6886,0,0,0-1.7931-.1363C15.9362,24.812,15.9362,24.812,15.7516,24.812Zm.39-1.8a16.5483,16.5483,0,0,1,2.0214.1555,15.7824,15.7824,0,0,1,4.5063,1.342,16.0461,16.0461,0,0,1-.5337,29.273A15.8454,15.8454,0,0,1,5.2213,50.8789,16.06,16.06,0,0,1,.2168,36.3916a15.9309,15.9309,0,0,1,1.7075-4.9954A16.0755,16.0755,0,0,1,9.0266,24.592a15.8066,15.8066,0,0,1,4.2874-1.3647,16.67,16.67,0,0,1,2.2121-.2127C15.73,23.0125,15.9362,23.0125,16.1417,23.0125Z"/><path d="M11.7594,11.0828a.2984.2984,0,0,0,.2678.3047h1.2853a.2879.2879,0,0,0,.2678-.3047V4.1865h.0147l5.8988,7.3614h.3386a.283.283,0,0,0,.2678-.2886V.4653a.2985.2985,0,0,0-.2678-.3047H18.5337a.288.288,0,0,0-.2678.3047V7.0891h-.0144L12.3805,0h-.3533a.283.283,0,0,0-.2678.2886Z"/><line class="cls-1" x1="15.9359" y1="15.2317" x2="15.9359" y2="39.1116"/></g></g></svg>