<svg xmlns="http://www.w3.org/2000/svg" viewBox="0 0 72.0747 72.0044"><title>samochod</title><g id="Warstwa_2" data-name="Warstwa 2"><g id="Warstwa_1-2" data-name="Warstwa 1"><path d="M1.8,1.8H50.88V18.2188a.9.9,0,0,0,.9.9h3.4973A15.0134,15.0134,0,0,1,70.2738,34.1145V61.9407H66.6981a9.1121,9.1121,0,0,0-18.1251,0H23.0085a9.1121,9.1121,0,0,0-18.1251,0H1.8ZM57.6351,70.2036A7.313,7.313,0,1,1,64.9476,62.89,7.3218,7.3218,0,0,1,57.6351,70.2036Zm-43.6887,0A7.313,7.313,0,1,1,21.2589,62.89,7.3218,7.3218,0,0,1,13.9464,70.2036ZM0,62.8416a.9.9,0,0,0,.9.9H4.8771a9.1092,9.1092,0,0,0,18.14,0h25.55a9.1092,9.1092,0,0,0,18.14,0h4.4684a.9.9,0,0,0,.9-.9V34.1155A16.8154,16.8154,0,0,0,55.2781,17.32H52.6807V.9a.9.9,0,0,0-.9-.9H.9A.9.9,0,0,0,0,.9Z"/><path d="M52.62,24.2405h1.5452a10.2283,10.2283,0,0,1,10.216,10.2168V37.4H52.62ZM51.72,39.2H65.2815a.9.9,0,0,0,.9-.9V34.4565A12.03,12.03,0,0,0,54.1656,22.44H51.72a.9.9,0,0,0-.9.9v14.959A.9.9,0,0,0,51.72,39.2Z"/><path d="M41.69,15.6187v7.3845H10.42V15.6187ZM10.42,32.2056V24.803H41.69v7.4026Zm0,9.2951V34.0056H41.69v7.4951Zm-.9,1.8h1.0916v2.2024a.9.9,0,0,0,1.8,0V43.3008H39.6981v2.2024a.9.9,0,0,0,1.8,0V43.3008H42.59a.9.9,0,0,0,.9-.9V14.7185a.9.9,0,0,0-.9-.9H9.52a.9.9,0,0,0-.9.9V42.4009A.9.9,0,0,0,9.52,43.3008Z"/><path d="M25.3323,20.2112h1.5471a.9.9,0,1,0,0-1.8H25.3323a.9.9,0,0,0,0,1.8Z"/><path d="M26.8794,36.7974H25.3323a.9.9,0,0,0,0,1.8h1.5471a.9.9,0,1,0,0-1.8Z"/><path d="M26.8794,27.5957H25.3323a.9.9,0,0,0,0,1.8h1.5471a.9.9,0,0,0,0-1.8Z"/></g></g></svg>